<svg xmlns="http://www.w3.org/2000/svg" viewBox="0 0 159.89 61.24"><defs><style>.cls-1{fill:#45a9b7;}.cls-2{fill:none;stroke:#464648;stroke-miterlimit:10;stroke-width:0.87px;}.cls-3{fill:#454547;}.cls-4{fill:#fff;}.cls-5{fill:#394240;}.cls-6{fill:#ee6825;}</style></defs><title>logo original</title><g id="Layer_2" data-name="Layer 2"><g id="Layer_1-2" data-name="Layer 1"><path class="cls-1" d="M39.81,45.55a7.33,7.33,0,0,1,1.1-6.72,9.51,9.51,0,0,1,7.6-4.11,7.62,7.62,0,0,1,1.85.22,3.14,3.14,0,0,1,2.14,3.48,2.26,2.26,0,0,1-2.22,2.12H50.1a89.67,89.67,0,0,0,12.46,5.41H67a4.21,4.21,0,0,0,4.21-4.21V11.83A4.21,4.21,0,0,0,67,7.62H4.21A4.22,4.22,0,0,0,0,11.83v29.9a4.22,4.22,0,0,0,4.21,4.21H40A2.76,2.76,0,0,1,39.81,45.55Z"/><circle class="cls-2" cx="156.46" cy="3.44" r="3"/><path class="cls-3" d="M157.64,4.48a.58.58,0,0,1,.07.22c0,.11-.09.2-.27.28a.6.6,0,0,1-.23.06.18.18,0,0,1-.13,0,.22.22,0,0,1-.08-.09s-.15-.31-.34-.78H156v.49c0,.06,0,.11,0,.15a.76.76,0,0,1,0,.11c0,.08-.16.12-.34.12s-.32,0-.36-.16a1.21,1.21,0,0,1,0-.23V2.06a.76.76,0,0,1,0-.11c0-.08.16-.12.34-.12h.94a1.16,1.16,0,0,1,.74.28,1,1,0,0,1,.29.36,1.13,1.13,0,0,1,.11.52,1.09,1.09,0,0,1-.32.8C157.41,4,157.51,4.17,157.64,4.48ZM156,3.37h.55a.38.38,0,0,0,.25-.1.32.32,0,0,0,.13-.28.32.32,0,0,0-.13-.29.39.39,0,0,0-.26-.1H156Z"/><path class="cls-4" d="M24.22,13c1.59.7,2.38,1.55,2.38,2.54a3,3,0,0,1-.32,1.38,4.93,4.93,0,0,0-.32.69l-10.6,23.7c-.22.51-.4.9-.55,1.17a2.41,2.41,0,0,1-.71.77,1.9,1.9,0,0,1-1.21.37A6.21,6.21,0,0,1,10.75,43c-1.59-.7-2.39-1.54-2.39-2.51q0-1,3.88-9.26l-8-13.55a4.47,4.47,0,0,1-.8-2c0-.87.72-1.73,2.18-2.59a4.75,4.75,0,0,1,2.14-.81A2.31,2.31,0,0,1,9,12.64a2.57,2.57,0,0,1,.71.67c.14.23.88,1.48,2.22,3.76s2.61,4.4,3.82,6.37q.21-.64,2.19-5T20,13.81a4,4,0,0,1,.47-.68A1.74,1.74,0,0,1,22,12.44,5.76,5.76,0,0,1,24.22,13Z"/><path class="cls-4" d="M48.16,20.87a4.91,4.91,0,0,1-1.23,3.68,3.83,3.83,0,0,1-2.73,1.2H34.61A2.23,2.23,0,0,0,36,27.65a5.34,5.34,0,0,0,2.67.77,11,11,0,0,0,3.68-.49l.44-.16a4.07,4.07,0,0,1,1.62-.45c.86,0,1.61.61,2.23,1.83A4.39,4.39,0,0,1,47.11,31q0,3.6-8.61,3.6a13,13,0,0,1-5.32-1,8.88,8.88,0,0,1-3.62-2.73A11.61,11.61,0,0,1,27,23.52a10.6,10.6,0,0,1,3.29-8.15,11.7,11.7,0,0,1,8.24-3q5.61,0,8.25,4A8.26,8.26,0,0,1,48.16,20.87Zm-8.53,1.2c1,0,1.54-.43,1.54-1.3a1.81,1.81,0,0,0-.71-1.49,3.17,3.17,0,0,0-2-.57,4.1,4.1,0,0,0-2.6,1.07,3,3,0,0,0-1.3,2.29Z"/><path class="cls-4" d="M51,32.18a1.69,1.69,0,0,1-.76-1.54,6.66,6.66,0,0,1,1.53-3.19,1.59,1.59,0,0,1,1.44-.69,5.9,5.9,0,0,1,2.69,1,6.24,6.24,0,0,0,3.07,1c1.65,0,2.47-.32,2.47-1s-.9-.89-2.71-1.13a13.5,13.5,0,0,1-5.06-1.9,5.43,5.43,0,0,1-1.94-2.29,8.31,8.31,0,0,1-.77-3.7q0-6.39,8.78-6.39a14.34,14.34,0,0,1,5.91,1.37c.94.44,1.41,1,1.41,1.62a4.73,4.73,0,0,1-.89,2.39c-.59.94-1.2,1.41-1.82,1.41a5.57,5.57,0,0,1-1.8-.6,6.6,6.6,0,0,0-2.85-.61c-1.59,0-2.39.3-2.39.89,0,.81.92,1.34,2.76,1.58A14.94,14.94,0,0,1,65.19,22a4.58,4.58,0,0,1,2,2,7.08,7.08,0,0,1,.78,3.5A7.6,7.6,0,0,1,67.16,31,5.21,5.21,0,0,1,65,33.19a14.81,14.81,0,0,1-6.49,1.25A13.91,13.91,0,0,1,51,32.18Z"/><path class="cls-5" d="M102.68,15.13a11.1,11.1,0,0,1,15.49,0,10.44,10.44,0,0,1,3.36,8,10.51,10.51,0,0,1-1.74,6,10.87,10.87,0,0,1-4.23,3.84,11.4,11.4,0,0,1-5.16,1.24,11,11,0,0,1-5.17-1.32A11.34,11.34,0,0,1,101,28.94a10.17,10.17,0,0,1-1.72-5.8A10.43,10.43,0,0,1,102.68,15.13Zm5,10.9a4.32,4.32,0,0,0,2.63,1A4.44,4.44,0,0,0,113,26a3.53,3.53,0,0,0,1.34-3,3.49,3.49,0,0,0-1.26-3,4.31,4.31,0,0,0-2.71-1,4.26,4.26,0,0,0-2.71,1,3.62,3.62,0,0,0-1.25,3A3.5,3.5,0,0,0,107.73,26Z"/><path class="cls-5" d="M151.3,19.62l-2.63-.17V25a2.77,2.77,0,0,0,.34,1.57,1.48,1.48,0,0,0,1.3.49,13.1,13.1,0,0,1,1.45.06,2.7,2.7,0,0,1,1,.38c.64.35,1,1.26,1,2.71q0,2.55-1.14,3.12a3.63,3.63,0,0,1-1.07.34,11.35,11.35,0,0,1-1.35.06,8.64,8.64,0,0,1-6.27-2.22,8.08,8.08,0,0,1-2.31-6.11v-6c-1.45.08-2.7.13-3.72.13L134,19.41V30.25a5.15,5.15,0,0,1-.39,2.29,1.89,1.89,0,0,1-1.17,1,7.21,7.21,0,0,1-2,.24,6.12,6.12,0,0,1-2-.26,1.86,1.86,0,0,1-1.07-.85,3.15,3.15,0,0,1-.38-1.07,12.49,12.49,0,0,1-.06-1.42V19.45a11.44,11.44,0,0,1-1.68.13,1.84,1.84,0,0,1-1.46-.69,3.66,3.66,0,0,1-.58-2.35,10,10,0,0,1,.2-2.41,2.2,2.2,0,0,1,.56-1.07,2.5,2.5,0,0,1,1.62-.52l1.34.16V10.55a8.36,8.36,0,0,1,2.22-5.64,8.13,8.13,0,0,1,6.43-2.53,12,12,0,0,1,1.4.06,4,4,0,0,1,1.07.35c.73.38,1.09,1.43,1.09,3.15a4.32,4.32,0,0,1-.68,2.75,2.27,2.27,0,0,1-1.78.73,10.78,10.78,0,0,1-1.14,0c-1,0-1.49.34-1.49,1V12.7c1.48-.11,2.77-.16,3.88-.16l3.76.16V8.53a11.16,11.16,0,0,1,.06-1.37,2.86,2.86,0,0,1,.35-1q.56-1,3.15-1,2.75,0,3.24,1.5a6.42,6.42,0,0,1,.24,2.06v4c1.19-.11,2.08-.16,2.69-.16a11.5,11.5,0,0,1,1.37.06,3,3,0,0,1,1,.38c.72.35,1.09,1.39,1.09,3.12s-.37,2.73-1.09,3.11a4.18,4.18,0,0,1-1.08.35A11.78,11.78,0,0,1,151.3,19.62Z"/><path class="cls-5" d="M96.47,23.6a4.62,4.62,0,0,0-2-2,15.06,15.06,0,0,0-5.18-1.54c-1.84-.24-2.75-.77-2.75-1.58,0-.59.79-.89,2.38-.89a6.82,6.82,0,0,1,2.86.61,5.53,5.53,0,0,0,1.8.61c.62,0,1.22-.47,1.82-1.42a4.8,4.8,0,0,0,.89-2.38c0-.65-.48-1.19-1.42-1.62A14.2,14.2,0,0,0,89,12.05q-8.79,0-8.78,6.39a8.15,8.15,0,0,0,.77,3.7,5.43,5.43,0,0,0,1.94,2.29,14.56,14.56,0,0,0,2.54,1.25,15.62,15.62,0,0,0,2.2.43.18.18,0,0,0,.17-.13,2.72,2.72,0,0,1,.59-1,.67.67,0,0,0,.17-.36,6.83,6.83,0,0,0,0-1.52.44.44,0,0,1,.19-.42c.4-.24,1.08.15,1.32,1.07a2.9,2.9,0,0,1,.05,1.33.1.1,0,0,0,.12.12,5.61,5.61,0,0,1,2.05-.08.84.84,0,0,1,.69.69,10.85,10.85,0,0,1,0,3.11.83.83,0,0,1-.75.68c-1.35.1-3.29.14-3.88-.39a.62.62,0,0,0-.45-.17c-1.17,0-2.22,0-3.15,0A5.37,5.37,0,0,1,81,27.23a6.45,6.45,0,0,0-1.47,3.11,1.68,1.68,0,0,0,.77,1.53,13.89,13.89,0,0,0,7.5,2.27,14.78,14.78,0,0,0,6.49-1.26,5.1,5.1,0,0,0,2.21-2.2,7.6,7.6,0,0,0,.79-3.58A7.11,7.11,0,0,0,96.47,23.6Z"/><path class="cls-6" d="M98.67,59.15a41.39,41.39,0,0,1-23.85,0c-.21-.06-.47,0-.47.14h0c0,.06.08.11.19.14a42,42,0,0,0,24.41,0c.11,0,.19-.08.19-.14h0C99.14,59.18,98.87,59.1,98.67,59.15Z"/><path class="cls-6" d="M41.71,44.86c-1.51-4.15,3.56-9.08,8.17-8,.78.19.8,2,.21,1.52C47,35.74,40.27,42.27,43.38,45,44,45.47,42,45.56,41.71,44.86Z"/><path class="cls-6" d="M123.19,37.12c4.52-1.37,9.91,3.27,8.68,7.49-.21.72-2.22.74-1.66.2,2.93-2.86-4.2-9-7.13-6.15C122.52,39.2,122.42,37.36,123.19,37.12Z"/><path class="cls-6" d="M128.48,39.73c-28,16.19-55.95,16.63-83.94,0a1.14,1.14,0,0,0-1.66,1h0a1.26,1.26,0,0,0,.68,1c29,19.86,57.66,19.64,85.92,0a1.25,1.25,0,0,0,.65-1v0A1.14,1.14,0,0,0,128.48,39.73Z"/></g></g></svg>