<?xml version="1.0" encoding="iso-8859-1"?>
<!-- Generator: Adobe Illustrator 19.0.0, SVG Export Plug-In . SVG Version: 6.00 Build 0)  -->
<svg version="1.1" id="Capa_1" xmlns="http://www.w3.org/2000/svg" xmlns:xlink="http://www.w3.org/1999/xlink" x="0px" y="0px"
	 viewBox="0 0 512 512" style="enable-background:new 0 0 512 512;" xml:space="preserve">
<g>
	<g>
		<rect x="159.254" y="52.018" width="193.492" height="29.999"/>
	</g>
</g>
<g>
	<g>
		<rect x="99.596" y="67.017" width="29.659" height="11.669"/>
	</g>
</g>
<g>
	<g>
		<rect x="382.745" y="67.017" width="29.659" height="11.669"/>
	</g>
</g>
<g>
	<g>
		<polygon points="442.403,52.018 442.403,108.686 352.746,108.686 352.746,67.017 159.254,67.017 159.254,108.686 69.597,108.686 
			69.597,52.018 0.01,52.018 0.01,145.014 511.99,145.014 511.99,52.018 		"/>
	</g>
</g>
<g>
	<g>
		<path d="M0.01,175.013V512h511.98V175.013H0.01z M111.906,456.002H62.338v-29.999h49.568V456.002z M111.906,391.005H62.338
			v-29.999h49.568V391.005z M111.906,326.007H62.338v-29.999h49.568V326.007z M196.342,456.002h-49.558v-29.999h49.558V456.002z
			 M196.342,391.005h-49.558v-29.999h49.558V391.005z M196.342,326.007h-49.558v-29.999h49.558V326.007z M280.779,456.002h-49.558
			v-29.999h49.558V456.002z M280.779,391.005h-49.558v-29.999h49.558V391.005z M280.779,326.007h-49.558v-29.999h49.558V326.007z
			 M280.779,261.01h-49.558v-29.999h49.558V261.01z M365.216,456.002h-49.558v-29.999h49.558V456.002z M365.216,391.005h-49.558
			v-29.999h49.558V391.005z M365.216,326.007h-49.558v-29.999h49.558V326.007z M365.216,261.01h-49.558v-29.999h49.558V261.01z
			 M449.662,391.005h-49.568v-29.999h49.568V391.005z M449.662,326.007h-49.568v-29.999h49.568V326.007z M449.662,261.01h-49.568
			v-29.999h49.568V261.01z"/>
	</g>
</g>
<g>
	<g>
		<rect x="99.596" width="29.659" height="78.687"/>
	</g>
</g>
<g>
	<g>
		<rect x="382.745" width="29.659" height="78.687"/>
	</g>
</g>
<g>
</g>
<g>
</g>
<g>
</g>
<g>
</g>
<g>
</g>
<g>
</g>
<g>
</g>
<g>
</g>
<g>
</g>
<g>
</g>
<g>
</g>
<g>
</g>
<g>
</g>
<g>
</g>
<g>
</g>
</svg>
