<?xml version="1.0" encoding="iso-8859-1"?>
<!-- Generator: Adobe Illustrator 19.0.0, SVG Export Plug-In . SVG Version: 6.00 Build 0)  -->
<svg version="1.1" id="Capa_1" xmlns="http://www.w3.org/2000/svg" xmlns:xlink="http://www.w3.org/1999/xlink" x="0px" y="0px"
	 viewBox="0 0 512 512" style="enable-background:new 0 0 512 512;" xml:space="preserve">
<g>
	<g>
		<path d="M0,15.845v420.259h164.332v30.049h-30.036v30.001h243.407v-30.001h-30.036v-30.049H512V15.845H0z M317.665,466.153
			H194.334v-30.049h123.332V466.153z M481.999,406.103H30.001v-60.075h451.997V406.103z M481.999,316.027H30.001V45.847h451.997
			V316.027z"/>
	</g>
</g>
<g>
	<g>
		<polygon points="203.943,126.712 182.729,105.498 107.29,180.937 182.729,256.375 203.943,235.161 149.718,180.937 		"/>
	</g>
</g>
<g>
	<g>
		<polygon points="329.271,105.498 308.057,126.712 362.282,180.937 308.057,235.161 329.271,256.375 404.709,180.937 		"/>
	</g>
</g>
<g>
	<g>
		
			<rect x="166.742" y="165.947" transform="matrix(0.1951 -0.9808 0.9808 0.1951 28.5815 396.7237)" width="178.511" height="30.002"/>
	</g>
</g>
<g>
</g>
<g>
</g>
<g>
</g>
<g>
</g>
<g>
</g>
<g>
</g>
<g>
</g>
<g>
</g>
<g>
</g>
<g>
</g>
<g>
</g>
<g>
</g>
<g>
</g>
<g>
</g>
<g>
</g>
</svg>
