<svg id="Capa_1" enable-background="new 0 0 511.73 511.73" height="512" viewBox="0 0 511.73 511.73" width="512" xmlns="http://www.w3.org/2000/svg"><g id="XMLID_837_"><path id="XMLID_853_" d="m258.002 81.905c-.555-.006-1.104-.01-1.658-.01-36.652 0-71.396 14.032-97.988 39.616-27.006 25.981-42.411 60.803-43.376 98.05-.832 32.088 8.834 62.594 27.952 88.219 22.321 29.918 34.12 64.8 34.12 100.875v103.075h156.854l.018-98.865c0-37.491 12.314-73.727 35.612-104.79 18.46-24.612 28.217-53.925 28.217-84.769 0-37.482-14.516-72.8-40.874-99.445-26.337-26.624-61.452-41.524-98.877-41.956zm45.904 399.825h-96.854v-52.433h96.854zm-63.143-174.491c0-8.115 6.602-14.717 14.716-14.717s14.716 6.602 14.716 14.717c0 8.114-6.602 14.716-14.716 14.716s-14.716-6.601-14.716-14.716zm104.773-17.164c-24.415 32.553-38.508 70.066-41.155 109.223h-33.902v-49.939c17.3-6.179 29.717-22.724 29.717-42.12 0-24.657-20.06-44.717-44.716-44.717s-44.716 20.06-44.716 44.717c0 19.396 12.417 35.94 29.716 42.12v49.939h-33.651c-1.878-39.235-15.559-76.897-39.852-109.457-15.053-20.176-22.663-44.21-22.007-69.502 1.568-60.489 52.07-109.153 112.687-108.436 60.708.7 110.097 50.675 110.097 111.403-.001 24.301-7.684 47.39-22.218 66.769z"/><path id="XMLID_1294_" d="m186.989 227.754 21.213 21.213c12.628-12.628 29.418-19.583 47.277-19.583s34.649 6.955 47.278 19.583l21.213-21.213c-18.295-18.295-42.618-28.37-68.491-28.37-25.872 0-50.196 10.075-68.49 28.37z"/><path id="XMLID_1295_" d="m241.251 0h30v36.554h-30z"/><path id="XMLID_1296_" d="m131.211 29.071h30v36.554h-30z" transform="matrix(.866 -.5 .5 .866 -4.086 79.447)"/><path id="XMLID_1297_" d="m50.449 109.268h30v36.554h-30z" transform="matrix(.5 -.866 .866 .5 -77.733 120.451)"/><path id="XMLID_1298_" d="m428.006 113.882h36.553v30h-36.553z" transform="matrix(.866 -.5 .5 .866 -4.652 240.404)"/><path id="XMLID_1299_" d="m347.808 33.12h36.554v30h-36.554z" transform="matrix(.5 -.866 .866 .5 141.368 341.098)"/></g></svg>