<?xml version="1.0" encoding="iso-8859-1"?>
<!-- Generator: Adobe Illustrator 19.0.0, SVG Export Plug-In . SVG Version: 6.00 Build 0)  -->
<svg version="1.1" id="Capa_1" xmlns="http://www.w3.org/2000/svg" xmlns:xlink="http://www.w3.org/1999/xlink" x="0px" y="0px"
	 viewBox="0 0 508.2 508.2" style="enable-background:new 0 0 508.2 508.2;" xml:space="preserve">
<g>
	<g>
		<g>
			<path d="M421.15,139c-9.7-9.7-15.1-22.6-15.1-36.4c0-37.3-30.4-67.7-67.7-67.7c-13.7,0-26.7-5.4-36.4-15.1
				c-26.4-26.4-69.3-26.4-95.7,0c-9.7,9.7-22.6,15.1-36.4,15.1c-37.3,0-67.7,30.4-67.7,67.7c0,13.7-5.3,26.7-15.1,36.4
				c-12.8,12.8-19.8,29.8-19.8,47.9s7,35.1,19.8,47.9c9.7,9.7,15.1,22.6,15.1,36.4c0,30.7,20.5,56.6,48.5,64.9l-39.3,146.8l59.3-33
				l34.8,58.3l36.3-135.5c4.1,0.7,8.2,1.1,12.3,1.1c4.1,0,8.2-0.4,12.3-1.1l36.4,135.4l34.8-58.3l59.3,33L357.55,336
				c28-8.3,48.5-34.2,48.5-64.9c0-13.7,5.4-26.7,15.1-36.4C447.55,208.4,447.55,165.4,421.15,139z M199.85,466.8l-23.2-38.8
				l-39.5,22l29.8-111.2c1.1,0.1,2.1,0.1,3.1,0.1c13.7,0,26.7,5.4,36.4,15.1c1.6,1.6,3.2,3,4.9,4.4c0.5,0.4,1,0.8,1.5,1.2
				c1.2,0.9,2.4,1.8,3.7,2.7c0.7,0.5,1.5,0.9,2.2,1.4c1.1,0.6,2.1,1.3,3.2,1.9c0.9,0.5,1.9,1,2.8,1.4c0.4,0.2,1,0.5,1.6,0.7
				L199.85,466.8z M371.35,450l-39.5-22l-23.2,38.8l-26.5-99.1c0.6-0.3,1.1-0.6,1.7-0.8c1-0.5,1.9-0.9,2.9-1.5
				c1.1-0.6,2.1-1.2,3.1-1.8c0.8-0.5,1.5-0.9,2.3-1.4c1.2-0.8,2.3-1.7,3.5-2.6c0.6-0.4,1.2-0.8,1.7-1.3c1.7-1.4,3.3-2.8,4.9-4.4
				c9.7-9.7,22.6-15.1,36.4-15.1c0.8,0.1,1.8,0,2.9,0L371.35,450z M409.65,223.3c-12.8,12.8-19.8,29.8-19.8,47.9
				c0,24.8-17.6,45.5-41,50.4l-2.6,0.4c-1.4,0.2-2.6,0.4-3.9,0.5c-1.3,0.1-2.7,0.2-4,0.2c-6.8,0-13.4,1-19.7,2.9
				c-10.5,3.2-20.2,8.9-28.1,16.9c-1.4,1.4-2.8,2.6-4.3,3.8c-0.5,0.4-1,0.7-1.5,1.1c-1,0.8-2.1,1.5-3.2,2.2c-0.5,0.3-1.1,0.7-1.7,1
				c-1.2,0.7-2.4,1.3-3.6,1.9c-0.5,0.2-0.9,0.4-1.4,0.7c-1.5,0.7-3.1,1.3-4.6,1.8c-0.3,0.1-0.7,0.3-1,0.4l-0.6,0.2
				c-9.4,2.7-19.5,2.7-28.9,0l-0.8-0.2c-0.3-0.1-0.5-0.2-0.8-0.3c-1.6-0.5-3.2-1.2-4.8-1.8c-0.4-0.2-0.9-0.4-1.3-0.6
				c-1.3-0.6-2.5-1.3-3.7-2c-0.5-0.3-1-0.6-1.5-0.9c-1.2-0.7-2.3-1.5-3.4-2.3c-0.4-0.3-0.9-0.6-1.3-1c-1.5-1.2-2.9-2.5-4.3-3.8
				c-8-8-17.6-13.7-28.1-16.9c-6.3-1.9-12.9-2.9-19.7-2.9c-1.4,0-2.7-0.1-4-0.2c-1.2-0.1-2.5-0.3-3.9-0.5l-2.6-0.4
				c-23.4-4.9-41-25.6-41-50.4c0-18.1-7-35.1-19.8-47.9c-9.7-9.7-15.1-22.6-15.1-36.4c0-13.7,5.4-26.7,15.1-36.4
				c12.8-12.8,19.8-29.8,19.8-47.9c0-28.4,23.1-51.4,51.4-51.4c18.1,0,35.1-7,47.9-19.8c10-10,23.2-15,36.4-15
				c13.2,0,26.4,5,36.4,15c12.8,12.8,29.8,19.8,47.9,19.8c28.4,0,51.4,23.1,51.4,51.4c0,18.1,7,35.1,19.8,47.9
				C429.75,170.6,429.75,203.2,409.65,223.3z"/>
			<path d="M254.15,65.1c-67.2,0-121.9,54.7-121.9,121.9s54.7,121.8,121.9,121.8s121.9-54.7,121.9-121.9S321.35,65.1,254.15,65.1z
				 M254.15,292.5c-58.2,0-105.6-47.4-105.6-105.6s47.4-105.6,105.6-105.6s105.6,47.4,105.6,105.6S312.35,292.5,254.15,292.5z"/>
			<path d="M254.15,103.8l-18.1,55.8h-58.7l47.5,34.5l-18.1,55.8l47.5-34.5l47.5,34.5l-18.2-55.8l47.5-34.5h-58.7L254.15,103.8z
				 M270.75,207.4l-16.6-12.1l-16.6,12.1l6.3-19.5l-16.6-12.1h20.5l6.3-19.5l6.3,19.5h20.5l-16.6,12.1L270.75,207.4z"/>
		</g>
	</g>
</g>
<g>
</g>
<g>
</g>
<g>
</g>
<g>
</g>
<g>
</g>
<g>
</g>
<g>
</g>
<g>
</g>
<g>
</g>
<g>
</g>
<g>
</g>
<g>
</g>
<g>
</g>
<g>
</g>
<g>
</g>
</svg>
