<svg id="Capa_1" enable-background="new 0 0 512 512" height="512" viewBox="0 0 512 512" width="512" xmlns="http://www.w3.org/2000/svg"><g><path d="m507.786 64.62c-.304-.286-60.445-57.641-60.445-57.641-2.299-2.206-4.677-4.486-9.117-4.486h-242.12c-7.072 0-12.826 5.753-12.826 12.825v39.383l-85.335 14.628c-6.84 1.2-11.44 7.746-10.255 14.579l4.331 25.252c-27.737 9.334-56.214 18.956-83.705 28.831-6.496 2.375-9.905 9.598-7.587 16.133l54.685 152.016c1.1 3.059 3.983 4.964 7.058 4.964.842 0 1.7-.143 2.538-.445 3.898-1.402 5.921-5.698 4.519-9.596l-53.876-149.768c25.9-9.273 52.722-18.349 78.935-27.172l25.771 150.245 29.654 173.032c1.071 6.108 6.44 10.454 12.5 10.454.686 0 1.382-.056 2.08-.171l80.316-13.783 62.76-10.758-94.391 33.927-74.435 26.763-57.808-160.789c-1.401-3.898-5.696-5.921-9.595-4.52-3.898 1.401-5.921 5.697-4.52 9.595l58.628 163.074c1.875 5.128 6.733 8.316 11.868 8.316 1.419 0 2.86-.244 4.264-.757l76.671-27.566 174.094-62.574 33.259-5.701h73.471c7.072 0 12.826-5.766 12.826-12.854v-326.985c.001-4.489-2.435-6.779-4.213-8.451zm-19.871 1.776h-37.53l-.93.004c-1.797.012-6.004.043-7.071-1.017-.246-.245-.534-1.063-.534-2.582l-.087-40.415zm9.085 331.512h-298.722v-146.167c0-4.142-3.358-7.5-7.5-7.5s-7.5 3.358-7.5 7.5v148.313c0 7.087 5.754 12.854 12.826 12.854h140.812l-94.545 16.206-77.982 13.383-29.248-170.665-32.269-188.13 80.405-13.783v147.022c0 4.142 3.358 7.5 7.5 7.5s7.5-3.358 7.5-7.5v-199.449h228.475l.098 45.326c0 5.494 1.671 9.938 4.966 13.21 5.063 5.027 12.22 5.377 16.663 5.377.382 0 .744-.003 1.083-.005l47.438-.003z"/><path d="m234.43 118.949c0 4.142 3.358 7.5 7.5 7.5h214.436c4.142 0 7.5-3.358 7.5-7.5s-3.358-7.5-7.5-7.5h-214.436c-4.142 0-7.5 3.358-7.5 7.5z"/><path d="m456.366 164.731h-214.436c-4.142 0-7.5 3.358-7.5 7.5s3.358 7.5 7.5 7.5h214.436c4.142 0 7.5-3.358 7.5-7.5s-3.358-7.5-7.5-7.5z"/><path d="m456.366 218.013h-214.436c-4.142 0-7.5 3.358-7.5 7.5s3.358 7.5 7.5 7.5h214.436c4.142 0 7.5-3.358 7.5-7.5s-3.358-7.5-7.5-7.5z"/><path d="m456.366 271.295h-214.436c-4.142 0-7.5 3.358-7.5 7.5s3.358 7.5 7.5 7.5h214.436c4.142 0 7.5-3.358 7.5-7.5s-3.358-7.5-7.5-7.5z"/><path d="m456.366 324.578h-214.436c-4.142 0-7.5 3.358-7.5 7.5s3.358 7.5 7.5 7.5h214.436c4.142 0 7.5-3.358 7.5-7.5s-3.358-7.5-7.5-7.5z"/></g></svg>