<?xml version="1.0" encoding="UTF-8"?>
<svg width="26px" height="27px" viewBox="0 0 26 27" version="1.1" xmlns="http://www.w3.org/2000/svg" xmlns:xlink="http://www.w3.org/1999/xlink">
    <!-- Generator: Sketch 63.1 (92452) - https://sketch.com -->
    <title>linkedin</title>
    <desc>Created with Sketch.</desc>
    <g id="Desktop-Version" stroke="none" stroke-width="1" fill="none" fill-rule="evenodd">
        <g id="JW_Partners" transform="translate(-127.000000, -6284.000000)" fill="#B0B7C3" fill-rule="nonzero">
            <g id="Footer" transform="translate(112.000000, 6075.788328)">
                <g id="Social" transform="translate(2.000000, 199.000000)">
                    <g id="Group-19">
                        <g id="linkedin" transform="translate(13.000000, 9.500000)">
                            <path d="M25.9935,26 L25.9935,25.9989167 L26,25.9989167 L26,16.4634167 C26,11.7985833 24.99575,8.20516667 19.54225,8.20516667 C16.9205833,8.20516667 15.16125,9.64383333 14.443,11.00775 L14.3671667,11.00775 L14.3671667,8.64066667 L9.19641667,8.64066667 L9.19641667,25.9989167 L14.5805833,25.9989167 L14.5805833,17.40375 C14.5805833,15.1406667 15.0095833,12.9523333 17.8121667,12.9523333 C20.5735833,12.9523333 20.61475,15.535 20.61475,17.5489167 L20.61475,26 L25.9935,26 Z" id="Path"></path>
                            <polygon id="Path" points="0.429 8.64175 5.81966667 8.64175 5.81966667 26 0.429 26"></polygon>
                            <path d="M3.12216667,0 C1.39858333,0 0,1.39858333 0,3.12216667 C0,4.84575 1.39858333,6.27358333 3.12216667,6.27358333 C4.84575,6.27358333 6.24433333,4.84575 6.24433333,3.12216667 C6.24325,1.39858333 4.84466667,0 3.12216667,0 Z" id="Path"></path>
                        </g>
                    </g>
                </g>
            </g>
        </g>
    </g>
</svg>