<svg xmlns="http://www.w3.org/2000/svg" viewBox="0 0 28 24" id="icon-twitter">
<path fill="#B0B7C3" d="M27.946 3.331c-1.05.461-2.162.764-3.3.9 1.197-.719 2.094-1.848 2.524-3.177-1.131.659-2.364 1.125-3.648 1.381A5.74 5.74 0 0 0 13.6 6.357c0 .442.05.882.148 1.312-4.616-.221-8.919-2.396-11.835-5.981-.515.875-.783 1.872-.777 2.887a5.74 5.74 0 0 0 2.553 4.78 5.72 5.72 0 0 1-2.6-.719v.071c-.002 2.733 1.922 5.088 4.6 5.632-.842.227-1.724.261-2.581.1a5.76 5.76 0 0 0 5.371 3.986c-2.031 1.593-4.538 2.458-7.119 2.456-.454-.001-.908-.027-1.36-.079a16.33 16.33 0 0 0 8.816 2.573c10.563 0 16.332-8.745 16.332-16.317 0-.244 0-.49-.017-.735A11.59 11.59 0 0 0 28 3.354l-.054-.023z"></path>
</svg>