<svg xmlns="http://www.w3.org/2000/svg" viewBox="0 0 29 20" id="icon-youtube">
<path fill="#B0B7C3" d="M28.406 3.052c-.162-.587-.472-1.122-.9-1.554A3.5 3.5 0 0 0 25.968.59c-2.182-.591-10.963-.591-10.963-.591S6.249-.016 4.045.591a3.5 3.5 0 0 0-1.538.908c-.428.432-.738.967-.9 1.554a37.21 37.21 0 0 0-.609 6.844 37.21 37.21 0 0 0 .611 6.816c.162.587.472 1.122.9 1.555a3.5 3.5 0 0 0 1.538.908c2.179.592 10.963.592 10.963.592s8.757 0 10.963-.592a3.5 3.5 0 0 0 1.538-.908c.428-.432.738-.968.9-1.554a37.22 37.22 0 0 0 .583-6.818c.015-2.294-.181-4.585-.588-6.844h0zM12.205 14.129v-8.48l7.308 4.247-7.308 4.233z"></path>
</svg>